# Blender 3.6.2
# www.blender.org

mtllib classic.mtl

o Head
v 23.999964 194.999985 23.999998
v 23.999973 147.000000 23.999998
v -24.000032 194.999985 23.999994
v -24.000023 147.000000 23.999994
v 23.999968 194.999985 -23.999994
v 23.999977 147.000000 -23.999994
v -24.000029 194.999985 -23.999998
v -24.000019 147.000000 -23.999998
vn -0.0000 1.0000 -0.0000
vn -1.0000 -0.0000 -0.0000
vn -0.0000 -0.0000 -1.0000
vn -0.0000 -1.0000 -0.0000
vn -0.0000 -0.0000 1.0000
vn 1.0000 -0.0000 -0.0000
vt 0.250000 0.875000
vt 0.250000 1.000000
vt 0.125000 1.000000
vt 0.125000 0.875000
vt 0.125000 0.750000
vt 0.000000 0.875000
vt 0.000000 0.750000
vt 0.500000 0.750000
vt 0.500000 0.875000
vt 0.375000 0.875000
vt 0.375000 0.750000
vt 0.375000 1.000000
vt 0.250000 0.750000
s 1
usemtl Player
f 1/1/1 5/2/1 7/3/1 3/4/1
f 4/5/2 3/4/2 7/6/2 8/7/2
f 8/8/3 7/9/3 5/10/3 6/11/3
f 6/2/4 2/1/4 4/10/4 8/12/4
f 2/13/5 1/1/5 3/4/5 4/5/5
f 6/11/6 5/10/6 1/1/6 2/13/6
o Body
v -24.000010 74.999977 -11.940000
v -24.000019 147.000000 -11.940000
v 23.999985 74.999985 -11.939998
v 23.999973 147.000000 -11.939998
v -24.000010 74.999977 11.939998
v -24.000019 147.000000 11.939998
v 23.999985 74.999985 11.940000
v 23.999973 147.000000 11.940000
vn -0.0000 -0.0000 -1.0000
vn 1.0000 -0.0000 -0.0000
vn -0.0000 -0.0000 1.0000
vn -1.0000 -0.0000 -0.0000
vn -0.0000 -1.0000 -0.0000
vn -0.0000 1.0000 -0.0000
vt 0.625000 0.500000
vt 0.625000 0.687500
vt 0.500000 0.687500
vt 0.500000 0.500000
vt 0.437500 0.687500
vt 0.437500 0.500000
vt 0.312500 0.687500
vt 0.312500 0.500000
vt 0.250000 0.687500
vt 0.250000 0.500000
vt 0.437500 0.750000
vt 0.562500 0.687500
vt 0.562500 0.750000
vt 0.312500 0.750000
s 1
usemtl Player
f 9/14/7 10/15/7 12/16/7 11/17/7
f 11/17/8 12/16/8 16/18/8 15/19/8
f 15/19/9 16/18/9 14/20/9 13/21/9
f 13/21/10 14/20/10 10/22/10 9/23/10
f 11/24/11 15/18/11 13/25/11 9/26/11
f 16/18/12 12/24/12 10/27/12 14/20/12
o RArm
v -60.069004 80.630707 -12.000001
v -47.566341 151.536835 -12.000001
v -36.433624 76.463142 -11.999999
v -23.930969 147.369293 -11.999999
v -60.069008 80.630707 11.999995
v -47.566345 151.536835 11.999995
v -36.433628 76.463142 11.999997
v -23.930973 147.369293 11.999997
vn -0.0000 -0.0000 -1.0000
vn 0.9848 -0.1736 -0.0000
vn -0.0000 -0.0000 1.0000
vn -0.9848 0.1736 -0.0000
vn -0.1736 -0.9848 -0.0000
vn 0.1736 0.9848 -0.0000
vt 0.875000 0.500000
vt 0.875000 0.687500
vt 0.812500 0.687500
vt 0.812500 0.500000
vt 0.750000 0.687500
vt 0.750000 0.500000
vt 0.687500 0.687500
vt 0.687500 0.500000
vt 0.625000 0.687500
vt 0.625000 0.500000
vt 0.750000 0.750000
vt 0.812500 0.750000
vt 0.687500 0.750000
s 1
usemtl Player
f 17/28/13 18/29/13 20/30/13 19/31/13
f 19/31/14 20/30/14 24/32/14 23/33/14
f 23/33/15 24/32/15 22/34/15 21/35/15
f 21/35/16 22/34/16 18/36/16 17/37/16
f 19/38/17 23/32/17 21/30/17 17/39/17
f 24/32/18 20/38/18 18/40/18 22/34/18
o LArm
v 36.433647 76.463165 -11.999997
v 23.930962 147.369293 -11.999997
v 60.069008 80.630730 -11.999995
v 47.566341 151.536865 -11.999995
v 36.433647 76.463165 11.999999
v 23.930960 147.369293 11.999999
v 60.069008 80.630730 12.000001
v 47.566341 151.536865 12.000001
vn -0.0000 -0.0000 -1.0000
vn 0.9848 0.1736 -0.0000
vn -0.0000 -0.0000 1.0000
vn -0.9848 -0.1736 -0.0000
vn 0.1736 -0.9848 -0.0000
vn -0.1736 0.9848 -0.0000
vt 0.750000 -0.000000
vt 0.750000 0.187500
vt 0.687500 0.187500
vt 0.687500 0.000000
vt 0.625000 0.187500
vt 0.625000 0.000000
vt 0.562500 0.187500
vt 0.562500 0.000000
vt 0.500000 0.187500
vt 0.500000 0.000000
vt 0.625000 0.250000
vt 0.687500 0.250000
vt 0.562500 0.250000
s 1
usemtl Player
f 25/41/19 26/42/19 28/43/19 27/44/19
f 27/44/20 28/43/20 32/45/20 31/46/20
f 31/46/21 32/45/21 30/47/21 29/48/21
f 29/48/22 30/47/22 26/49/22 25/50/22
f 27/51/23 31/45/23 29/43/23 25/52/23
f 32/45/24 28/51/24 26/53/24 30/47/24
o LLeg
v -0.000023 2.999996 -11.999998
v -0.000011 74.999992 -11.999998
v 23.999973 2.999992 -11.999996
v 23.999985 74.999985 -11.999996
v -0.000025 2.999996 11.999998
v -0.000013 74.999992 11.999998
v 23.999969 2.999992 12.000000
v 23.999985 74.999985 12.000000
vn -0.0000 -0.0000 -1.0000
vn 1.0000 -0.0000 -0.0000
vn -0.0000 -0.0000 1.0000
vn -1.0000 -0.0000 -0.0000
vn -0.0000 -1.0000 -0.0000
vn -0.0000 1.0000 -0.0000
vt 0.500000 -0.000000
vt 0.500000 0.187500
vt 0.437500 0.187500
vt 0.437500 0.000000
vt 0.375000 0.187500
vt 0.375000 0.000000
vt 0.312500 0.187500
vt 0.312500 0.000000
vt 0.250000 0.187500
vt 0.250000 0.000000
vt 0.375000 0.250000
vt 0.437500 0.250000
vt 0.312500 0.250000
s 1
usemtl Player
f 33/54/25 34/55/25 36/56/25 35/57/25
f 35/57/26 36/56/26 40/58/26 39/59/26
f 39/59/27 40/58/27 38/60/27 37/61/27
f 37/61/28 38/60/28 34/62/28 33/63/28
f 35/64/29 39/58/29 37/56/29 33/65/29
f 40/58/30 36/64/30 34/66/30 38/60/30
o RLeg
v -23.999971 2.999969 -12.000000
v -24.000008 74.999969 -12.000000
v 0.000024 2.999985 -11.999998
v -0.000011 74.999985 -11.999998
v -23.999973 2.999969 11.999996
v -24.000008 74.999969 11.999996
v 0.000022 2.999985 11.999998
v -0.000013 74.999985 11.999998
vn -0.0000 -0.0000 -1.0000
vn 1.0000 -0.0000 -0.0000
vn -0.0000 -0.0000 1.0000
vn -1.0000 -0.0000 -0.0000
vn -0.0000 -1.0000 -0.0000
vn -0.0000 1.0000 -0.0000
vt 0.250000 0.500000
vt 0.250000 0.687500
vt 0.187500 0.687500
vt 0.187500 0.500000
vt 0.125000 0.687500
vt 0.125000 0.500000
vt 0.062500 0.687500
vt 0.062500 0.500000
vt 0.000000 0.687500
vt 0.000000 0.500000
vt 0.125000 0.750000
vt 0.187500 0.750000
vt 0.062500 0.750000
s 1
usemtl Player
f 41/67/31 42/68/31 44/69/31 43/70/31
f 43/70/32 44/69/32 48/71/32 47/72/32
f 47/72/33 48/71/33 46/73/33 45/74/33
f 45/74/34 46/73/34 42/75/34 41/76/34
f 43/77/35 47/71/35 45/69/35 41/78/35
f 48/71/36 44/77/36 42/79/36 46/73/36
o HeadOut
v -27.000021 143.999985 -27.000002
v -27.000031 198.000000 -27.000002
v 26.999979 143.999985 -26.999998
v 26.999969 198.000000 -26.999998
v -27.000025 143.999985 26.999998
v -27.000034 198.000000 26.999998
v 26.999975 143.999985 27.000002
v 26.999966 198.000000 27.000002
vn -0.0000 -0.0000 -1.0000
vn 1.0000 -0.0000 -0.0000
vn -0.0000 -0.0000 1.0000
vn -1.0000 -0.0000 -0.0000
vn -0.0000 -1.0000 -0.0000
vn -0.0000 1.0000 -0.0000
vt 1.000000 0.750000
vt 1.000000 0.875000
vt 0.875000 0.875000
vt 0.875000 0.750000
vt 0.750000 0.875000
vt 0.750000 0.750000
vt 0.625000 0.875000
vt 0.625000 0.750000
vt 0.500000 0.875000
vt 0.500000 0.750000
vt 0.750000 1.000000
vt 0.875000 1.000000
vt 0.625000 1.000000
s 1
usemtl Player
f 49/80/37 50/81/37 52/82/37 51/83/37
f 51/83/38 52/82/38 56/84/38 55/85/38
f 55/85/39 56/84/39 54/86/39 53/87/39
f 53/87/40 54/86/40 50/88/40 49/89/40
f 51/90/41 55/84/41 53/82/41 49/91/41
f 56/84/42 52/90/42 50/92/42 54/86/42
o BodyOut
v -26.999996 71.999992 -14.940001
v -27.000011 150.000000 -14.940001
v 27.000006 72.000008 -14.939999
v 26.999992 150.000000 -14.939999
v -26.999996 71.999992 14.939999
v -27.000011 150.000000 14.939999
v 27.000006 72.000008 14.940001
v 26.999992 150.000000 14.940001
vn -0.0000 -0.0000 -1.0000
vn 1.0000 -0.0000 -0.0000
vn -0.0000 -0.0000 1.0000
vn -1.0000 -0.0000 -0.0000
vn -0.0000 -1.0000 -0.0000
vn -0.0000 1.0000 -0.0000
vt 0.625000 0.250000
vt 0.625000 0.437500
vt 0.500000 0.437500
vt 0.500000 0.250000
vt 0.500000 0.265625
vt 0.500000 0.453125
vt 0.437500 0.453125
vt 0.437500 0.265625
vt 0.437500 0.250000
vt 0.437500 0.437500
vt 0.312500 0.437500
vt 0.312500 0.250000
vt 0.250000 0.437500
vt 0.250000 0.250000
vt 0.437500 0.500000
vt 0.562500 0.437500
vt 0.562500 0.500000
vt 0.437500 0.500000
vt 0.312500 0.500000
s 1
usemtl Player
f 57/93/43 58/94/43 60/95/43 59/96/43
f 59/97/44 60/98/44 64/99/44 63/100/44
f 63/101/45 64/102/45 62/103/45 61/104/45
f 61/104/46 62/103/46 58/105/46 57/106/46
f 59/107/47 63/102/47 61/108/47 57/109/47
f 64/102/48 60/110/48 58/111/48 62/103/48
o RArmOut
v -63.544365 78.197235 -15.000002
v -49.999817 155.012207 -15.000002
v -34.000149 72.987801 -15.000000
v -20.455601 149.802765 -15.000000
v -63.544365 78.197235 14.999996
v -49.999821 155.012207 14.999996
v -34.000153 72.987801 14.999998
v -20.455603 149.802765 14.999998
vn -0.0000 -0.0000 -1.0000
vn 0.9848 -0.1736 -0.0000
vn -0.0000 -0.0000 1.0000
vn -0.9848 0.1736 -0.0000
vn -0.1736 -0.9848 -0.0000
vn 0.1736 0.9848 -0.0000
vt 0.875000 0.250000
vt 0.875000 0.437500
vt 0.812500 0.437500
vt 0.812500 0.250000
vt 0.750000 0.437500
vt 0.750000 0.250000
vt 0.687500 0.437500
vt 0.687500 0.250000
vt 0.625000 0.437500
vt 0.625000 0.250000
vt 0.750000 0.500000
vt 0.812500 0.500000
vt 0.687500 0.500000
s 1
usemtl Player
f 65/112/49 66/113/49 68/114/49 67/115/49
f 67/115/50 68/114/50 72/116/50 71/117/50
f 71/117/51 72/116/51 70/118/51 69/119/51
f 69/119/52 70/118/52 66/120/52 65/121/52
f 67/122/53 71/116/53 69/114/53 65/123/53
f 72/116/54 68/122/54 66/124/54 70/118/54
o LArmOut
v 34.000160 72.987785 -14.999998
v 20.455585 149.802750 -14.999998
v 63.544373 78.197250 -14.999996
v 49.999813 155.012222 -14.999996
v 34.000160 72.987785 15.000000
v 20.455585 149.802750 15.000000
v 63.544373 78.197250 15.000002
v 49.999813 155.012222 15.000002
vn -0.0000 -0.0000 -1.0000
vn 0.9848 0.1736 -0.0000
vn -0.0000 -0.0000 1.0000
vn -0.9848 -0.1736 -0.0000
vn 0.1736 -0.9848 -0.0000
vn -0.1736 0.9848 -0.0000
vt 1.000000 -0.000000
vt 1.000000 0.187500
vt 0.937500 0.187500
vt 0.937500 0.000000
vt 0.875000 0.187500
vt 0.875000 0.000000
vt 0.812500 0.187500
vt 0.812500 0.000000
vt 0.750000 0.187500
vt 0.750000 0.000000
vt 0.875000 0.250000
vt 0.937500 0.250000
vt 0.812500 0.250000
s 1
usemtl Player
f 73/125/55 74/126/55 76/127/55 75/128/55
f 75/128/56 76/127/56 80/129/56 79/130/56
f 79/130/57 80/129/57 78/131/57 77/132/57
f 77/132/58 78/131/58 74/133/58 73/134/58
f 75/135/59 79/129/59 77/127/59 73/136/59
f 80/129/60 76/135/60 74/137/60 78/131/60
o LLegOut
v -3.000026 -0.000004 -15.000000
v -3.000013 77.999992 -15.000000
v 26.999975 -0.000008 -14.999998
v 26.999989 77.999985 -14.999998
v -3.000028 -0.000004 15.000000
v -3.000015 77.999992 15.000000
v 26.999973 -0.000008 15.000002
v 26.999985 77.999985 15.000002
vn -0.0000 -0.0000 -1.0000
vn 1.0000 -0.0000 -0.0000
vn -0.0000 -0.0000 1.0000
vn -1.0000 -0.0000 -0.0000
vn -0.0000 -1.0000 -0.0000
vn -0.0000 1.0000 -0.0000
vt 0.250000 -0.000000
vt 0.250000 0.187500
vt 0.187500 0.187500
vt 0.187500 0.000000
vt 0.125000 0.187500
vt 0.125000 0.000000
vt 0.062500 0.187500
vt 0.062500 0.000000
vt 0.000000 0.187500
vt 0.000000 0.000000
vt 0.125000 0.250000
vt 0.187500 0.250000
vt 0.062500 0.250000
s 1
usemtl Player
f 81/138/61 82/139/61 84/140/61 83/141/61
f 83/141/62 84/140/62 88/142/62 87/143/62
f 87/143/63 88/142/63 86/144/63 85/145/63
f 85/145/64 86/144/64 82/146/64 81/147/64
f 83/148/65 87/142/65 85/140/65 81/149/65
f 88/142/66 84/148/66 82/150/66 86/144/66
o RLegOut
v -26.999971 -0.000027 -15.000002
v -27.000008 77.999969 -15.000002
v 3.000028 -0.000015 -15.000000
v 2.999990 77.999985 -15.000000
v -26.999973 -0.000027 14.999998
v -27.000010 77.999969 14.999998
v 3.000026 -0.000015 15.000000
v 2.999988 77.999985 15.000000
vn -0.0000 -0.0000 -1.0000
vn 1.0000 -0.0000 -0.0000
vn -0.0000 -0.0000 1.0000
vn -1.0000 -0.0000 -0.0000
vn -0.0000 -1.0000 -0.0000
vn -0.0000 1.0000 -0.0000
vt 0.250000 0.250000
vt 0.250000 0.437500
vt 0.187500 0.437500
vt 0.187500 0.250000
vt 0.125000 0.437500
vt 0.125000 0.250000
vt 0.062500 0.437500
vt 0.062500 0.250000
vt 0.000000 0.437500
vt 0.000000 0.250000
vt 0.125000 0.500000
vt 0.187500 0.500000
vt 0.062500 0.500000
s 1
usemtl Player
f 89/151/67 90/152/67 92/153/67 91/154/67
f 91/154/68 92/153/68 96/155/68 95/156/68
f 95/156/69 96/155/69 94/157/69 93/158/69
f 93/158/70 94/157/70 90/159/70 89/160/70
f 91/161/71 95/155/71 93/153/71 89/162/71
f 96/155/72 92/161/72 90/163/72 94/157/72
